<svg preserveAspectRatio="none" width="100%" height="100%" overflow="visible" style="display: block;" viewBox="0 0 28.6755 20.0729" fill="none" xmlns="http://www.w3.org/2000/svg">
<path id="Vector" d="M7.16888 1.43378C7.16888 0.641951 7.81084 0 8.60266 0H27.2418C28.0336 0 28.6755 0.641951 28.6755 1.43378C28.6755 2.2256 28.0336 2.86755 27.2418 2.86755H8.60266C7.81084 2.86755 7.16888 2.22555 7.16888 1.43378ZM27.2418 8.60266H1.43378C0.641951 8.60266 0 9.24467 0 10.0364C0 10.8283 0.641951 11.4702 1.43378 11.4702H27.2418C28.0336 11.4702 28.6755 10.8283 28.6755 10.0364C28.6755 9.24467 28.0336 8.60266 27.2418 8.60266ZM27.2418 17.2053H14.3378C13.546 17.2053 12.904 17.8473 12.904 18.6391C12.904 19.4309 13.546 20.0729 14.3378 20.0729H27.2418C28.0336 20.0729 28.6755 19.4309 28.6755 18.6391C28.6755 17.8473 28.0336 17.2053 27.2418 17.2053Z" fill="var(--fill-0, #565656)"/>
</svg>
