<svg preserveAspectRatio="none" width="100%" height="100%" overflow="visible" style="display: block;" viewBox="0 0 34.79 36.715" fill="none" xmlns="http://www.w3.org/2000/svg">
<path id="a" d="M25.025 35.595L23.59 26.39V13.475C23.59 11.7483 23.275 10.4067 22.645 9.45C22.015 8.49334 20.6733 8.015 18.62 8.015C17.4067 8.015 16.415 8.20167 15.645 8.575C14.8983 8.925 14.3383 9.40334 13.965 10.01C13.615 10.5933 13.44 11.235 13.44 11.935H1.33C1.33 9.22833 1.97167 7 3.255 5.25C4.53833 3.47667 6.46333 2.15834 9.03 1.295C11.5967 0.431667 14.7933 0 18.62 0C21.9567 0 24.8267 0.513334 27.23 1.54C29.6567 2.56667 31.5233 4.10667 32.83 6.16C34.1367 8.21334 34.79 10.7917 34.79 13.895V35.595H25.025ZM14.175 36.715C11.095 36.715 8.49333 36.2017 6.37 35.175C4.27 34.125 2.68333 32.7133 1.61 30.94C0.536667 29.1667 0 27.2067 0 25.06C0 23.03 0.56 21.28 1.68 19.81C2.8 18.3167 4.45667 17.1617 6.65 16.345C8.86667 15.5283 11.585 15.12 14.805 15.12C16.765 15.12 18.4917 15.225 19.985 15.435C21.5017 15.645 23.0533 15.9017 24.64 16.205V22.505C23.4733 22.2483 22.26 22.05 21 21.91C19.7633 21.77 18.55 21.7 17.36 21.7C15.7033 21.7 14.385 21.9683 13.405 22.505C12.4483 23.0183 11.97 23.87 11.97 25.06C11.97 25.9233 12.4017 26.6817 13.265 27.335C14.1283 27.965 15.4933 28.28 17.36 28.28C18.9467 28.28 20.195 27.965 21.105 27.335C22.015 26.705 22.6567 25.9117 23.03 24.955C23.4033 23.9983 23.59 23.0533 23.59 22.12H26.215C26.215 24.78 25.795 27.2183 24.955 29.435C24.115 31.6517 22.8083 33.425 21.035 34.755C19.2617 36.0617 16.975 36.715 14.175 36.715Z" fill="url(#paint0_linear_103_1180)"/>
<defs>
<linearGradient id="paint0_linear_103_1180" x1="28.5" y1="2.095" x2="4" y2="33.595" gradientUnits="userSpaceOnUse">
<stop stop-color="#FC7152"/>
<stop offset="1" stop-color="#E74530"/>
</linearGradient>
</defs>
</svg>
