<svg preserveAspectRatio="none" width="100%" height="100%" overflow="visible" style="display: block;" viewBox="0 0 24.9149 33.7263" fill="none" xmlns="http://www.w3.org/2000/svg">
<path id="k" d="M1.39653 33.7263C0.62525 33.7263 0 33.101 0 32.3298V1.39653C0 0.62525 0.625249 0 1.39653 0H6.42406C7.19534 0 7.82059 0.62525 7.82059 1.39653V32.3298C7.82059 33.101 7.19534 33.7263 6.42406 33.7263H1.39653ZM6.84302 17.6208L14.7472 10.042C15.0072 9.79273 15.3535 9.65354 15.7137 9.65354H21.7889C23.0883 9.65354 23.6834 11.2725 22.6934 12.1141L6.84302 25.588V17.6208ZM17.4973 33.7263C17.0254 33.7263 16.5855 33.488 16.3277 33.0929L6.6475 18.2562L13.8082 16.2766L24.6538 31.5202C25.3116 32.4447 24.6506 33.7263 23.5159 33.7263H17.4973Z" fill="url(#paint0_linear_103_1176)"/>
<defs>
<linearGradient id="paint0_linear_103_1176" x1="18.2143" y1="10.3344" x2="1.10672" y2="32.3298" gradientUnits="userSpaceOnUse">
<stop stop-color="#FC7152"/>
<stop offset="1" stop-color="#E74530"/>
</linearGradient>
</defs>
</svg>
