<svg preserveAspectRatio="none" width="100%" height="100%" overflow="visible" style="display: block;" viewBox="0 0 46.0424 53.3624" fill="none" xmlns="http://www.w3.org/2000/svg">
<g id="Icon">
<path id="Vector 1" d="M44.2766 39.3624L23.7766 51.8624V33.3624L31.2766 17.3624L34.7766 16.3624L44.2766 21.8624V39.3624Z" fill="url(#paint0_linear_103_1166)"/>
<g id="Group">
<path id="Vector" d="M31.8008 34.9142C31.4959 35.094 31.3088 35.4216 31.3088 35.7756V46.0531C31.3088 46.827 32.1502 47.3076 32.8168 46.9145L36.1577 44.9441C36.4626 44.7643 36.6497 44.4367 36.6497 44.0828V33.8052C36.6497 33.0313 35.8084 32.5507 35.1417 32.9439L31.8008 34.9142Z" fill="var(--fill-0, #E64631)"/>
<g id="Vector_2">
<path d="M46.0424 22.1231C46.0424 20.7004 45.2867 19.3848 44.0579 18.668L24.1262 7.04087L15.4518 2.01624C13.5326 0.904543 11.0753 1.56665 9.9744 3.49209L0.537493 19.9973C0.185499 20.6129 0.00350426 21.311 0.0101537 22.0202L0.178862 40.012C0.182153 40.363 0.369226 40.6865 0.671762 40.8645L21.4097 53.0645C21.7224 53.2484 22.1101 53.2486 22.4229 53.065L24.1262 52.0654V33.5368L31.8991 19.8148C32.9944 17.8813 35.4557 17.2111 37.3801 18.3225L43.3325 21.7603C43.6418 21.939 43.8323 22.2691 43.8323 22.6263V38.8313C43.8323 39.6043 44.6718 40.085 45.3385 39.6937L45.5485 39.5705C45.8545 39.3909 46.0424 39.0628 46.0424 38.708V22.1231Z" fill="url(#paint1_linear_103_1166)"/>
<path d="M46.0424 22.1231C46.0424 20.7004 45.2867 19.3848 44.0579 18.668L24.1262 7.04087L15.4518 2.01624C13.5326 0.904543 11.0753 1.56665 9.9744 3.49209L0.537493 19.9973C0.185499 20.6129 0.00350426 21.311 0.0101537 22.0202L0.178862 40.012C0.182153 40.363 0.369226 40.6865 0.671762 40.8645L21.4097 53.0645C21.7224 53.2484 22.1101 53.2486 22.4229 53.065L24.1262 52.0654V33.5368L31.8991 19.8148C32.9944 17.8813 35.4557 17.2111 37.3801 18.3225L43.3325 21.7603C43.6418 21.939 43.8323 22.2691 43.8323 22.6263V38.8313C43.8323 39.6043 44.6718 40.085 45.3385 39.6937L45.5485 39.5705C45.8545 39.3909 46.0424 39.0628 46.0424 38.708V22.1231Z" fill="url(#paint2_linear_103_1166)" fill-opacity="0.7"/>
</g>
</g>
</g>
<defs>
<linearGradient id="paint0_linear_103_1166" x1="19.7766" y1="-51.1376" x2="30.7766" y2="32.3624" gradientUnits="userSpaceOnUse">
<stop stop-color="#995236"/>
<stop offset="1" stop-color="#FFE7E4"/>
</linearGradient>
<linearGradient id="paint1_linear_103_1166" x1="25.2766" y1="7.86243" x2="9.27661" y2="45.8624" gradientUnits="userSpaceOnUse">
<stop stop-color="#FF6060"/>
<stop offset="0.112606" stop-color="#F45C5C"/>
<stop offset="0.519027" stop-color="#E65757"/>
<stop offset="0.581214" stop-color="#E96262"/>
<stop offset="0.641094" stop-color="#EE6C6C"/>
<stop offset="1" stop-color="#ED5959"/>
</linearGradient>
<linearGradient id="paint2_linear_103_1166" x1="23.2766" y1="6.36243" x2="12.7766" y2="21.8624" gradientUnits="userSpaceOnUse">
<stop stop-color="#FF7F50"/>
<stop offset="1" stop-color="#E53A1C"/>
</linearGradient>
</defs>
</svg>
