<svg preserveAspectRatio="none" width="100%" height="100%" overflow="visible" style="display: block;" viewBox="0 0 31.8268 36.715" fill="none" xmlns="http://www.w3.org/2000/svg">
<path id="s" d="M16.6718 36.715C13.3818 36.715 10.4768 36.2833 7.95676 35.42C5.43676 34.5333 3.46509 33.215 2.04176 31.465C0.817836 29.9147 0.137826 28.0167 0.00172468 25.7709C-0.0314789 25.223 0.419206 24.78 0.968098 24.78H9.12948C9.66681 24.78 10.0866 25.2129 10.2348 25.7294C10.4397 26.4432 10.8587 26.9668 11.4918 27.3C12.4018 27.7667 13.6268 28 15.1668 28C16.1001 28 16.8701 27.8833 17.4768 27.65C18.0834 27.4167 18.5384 27.1133 18.8418 26.74C19.1451 26.3433 19.2968 25.9233 19.2968 25.48C19.2968 24.8967 19.0868 24.43 18.6668 24.08C18.2468 23.73 17.5934 23.38 16.7068 23.03L8.34176 19.775C5.86842 18.7483 3.95509 17.4533 2.60176 15.89C1.27176 14.3033 0.606756 12.425 0.606756 10.255C0.606756 7.19834 2.01842 4.725 4.84176 2.835C7.66509 0.945 11.5268 0 16.4268 0C21.0234 0 24.5584 1.07333 27.0318 3.22C29.2501 5.14538 30.483 7.54003 30.7305 10.4039C30.7783 10.9569 30.3247 11.41 29.7697 11.41H21.5218C20.9695 11.41 20.5451 10.9422 20.3184 10.4386C20.1617 10.0906 19.9145 9.7727 19.5768 9.485C18.9468 8.925 17.8968 8.645 16.4268 8.645C15.2134 8.645 14.2568 8.84334 13.5568 9.24C12.8568 9.63667 12.5068 10.1617 12.5068 10.815C12.5068 11.7017 13.2418 12.4017 14.7118 12.915L24.2318 16.73C26.5884 17.6633 28.4434 18.83 29.7968 20.23C31.1501 21.63 31.8268 23.38 31.8268 25.48C31.8268 27.3933 31.1618 29.2133 29.8318 30.94C28.5251 32.6433 26.7284 34.0317 24.4418 35.105C22.1551 36.1783 19.5651 36.715 16.6718 36.715Z" fill="url(#paint0_linear_103_1156)"/>
<defs>
<linearGradient id="paint0_linear_103_1156" x1="25.0581" y1="2.095" x2="-0.0817268" y2="30.01" gradientUnits="userSpaceOnUse">
<stop stop-color="#FC7152"/>
<stop offset="1" stop-color="#E74530"/>
</linearGradient>
</defs>
</svg>
