<svg preserveAspectRatio="none" width="100%" height="100%" overflow="visible" style="display: block;" viewBox="0 0 22.2236 25.6369" fill="none" xmlns="http://www.w3.org/2000/svg">
<path id="s" d="M11.6413 25.6369C9.34404 25.6369 7.31557 25.3355 5.55594 24.7326C3.79631 24.1135 2.41956 23.1929 1.42569 21.971C0.571068 20.8884 0.0962393 19.5631 0.00120429 17.9949C-0.0219806 17.6124 0.292718 17.3031 0.675991 17.3031H6.37481C6.75001 17.3031 7.04316 17.6053 7.14665 17.966C7.28968 18.4644 7.58224 18.83 8.02431 19.0627C8.65974 19.3885 9.51511 19.5515 10.5904 19.5515C11.2422 19.5515 11.7798 19.47 12.2034 19.3071C12.6271 19.1442 12.9448 18.9323 13.1566 18.6717C13.3684 18.3947 13.4743 18.1014 13.4743 17.7918C13.4743 17.3845 13.3277 17.0587 13.0344 16.8143C12.7411 16.5699 12.2849 16.3255 11.6658 16.0811L5.82477 13.8082C4.09773 13.0913 2.76171 12.1871 1.81672 11.0955C0.888025 9.98755 0.423678 8.67597 0.423678 7.16073C0.423678 5.02636 1.4094 3.29931 3.38084 1.97959C5.35228 0.659862 8.04875 0 11.4703 0C14.68 0 17.1483 0.749474 18.8754 2.24842C20.4244 3.59285 21.2853 5.26495 21.4581 7.26473C21.4914 7.65086 21.1748 7.96723 20.7872 7.96723H15.0279C14.6423 7.96723 14.346 7.64059 14.1876 7.28894C14.0782 7.04591 13.9056 6.82395 13.6698 6.62306C13.2299 6.23203 12.4967 6.03652 11.4703 6.03652C10.623 6.03652 9.95502 6.17501 9.46623 6.45199C8.97745 6.72897 8.73305 7.09556 8.73305 7.55176C8.73305 8.17089 9.24628 8.65968 10.2727 9.01812L16.9202 11.682C18.5658 12.3337 19.8611 13.1484 20.8061 14.1259C21.7511 15.1035 22.2236 16.3255 22.2236 17.7918C22.2236 19.1279 21.7592 20.3987 20.8305 21.6044C19.9181 22.7938 18.6636 23.7632 17.0669 24.5127C15.4702 25.2621 13.6617 25.6369 11.6413 25.6369Z" fill="url(#paint0_linear_103_1162)"/>
<defs>
<linearGradient id="paint0_linear_103_1162" x1="17.4972" y1="1.46287" x2="-0.0570675" y2="20.955" gradientUnits="userSpaceOnUse">
<stop stop-color="#FC7152"/>
<stop offset="1" stop-color="#E74530"/>
</linearGradient>
</defs>
</svg>
