<svg preserveAspectRatio="none" width="100%" height="100%" overflow="visible" style="display: block;" viewBox="0 0 32.1499 37.2612" fill="none" xmlns="http://www.w3.org/2000/svg">
<g id="Icon">
<path id="Vector 1" d="M30.917 27.4855L16.6025 36.2138V23.2959L21.8395 12.1236L24.2834 11.4253L30.917 15.2658V27.4855Z" fill="url(#paint0_linear_103_1182)"/>
<g id="Group">
<path id="Vector" d="M22.2056 24.3794C21.9927 24.505 21.862 24.7337 21.862 24.9809V32.1573C21.862 32.6977 22.4495 33.0333 22.915 32.7588L25.2478 31.383C25.4607 31.2574 25.5914 31.0287 25.5914 30.7815V23.605C25.5914 23.0646 25.0039 22.7291 24.5384 23.0036L22.2056 24.3794Z" fill="var(--fill-0, #E64631)"/>
<g id="Vector_2">
<path d="M32.1499 15.4478C32.1499 14.4544 31.6222 13.5358 30.7642 13.0352L16.8465 4.91641L10.7895 1.40788C9.44937 0.631613 7.7335 1.09394 6.96479 2.43841L0.375314 13.9634C0.129529 14.3933 0.00244691 14.8808 0.00709003 15.376L0.124894 27.939C0.127192 28.1841 0.257819 28.4101 0.469069 28.5343L14.9497 37.0532C15.168 37.1816 15.4387 37.1817 15.6572 37.0535L16.8465 36.3555V23.4176L22.2741 13.836C23.0389 12.4859 24.7576 12.0179 26.1013 12.794L30.2576 15.1945C30.4736 15.3193 30.6067 15.5498 30.6067 15.7992V27.1146C30.6067 27.6543 31.1929 27.99 31.6584 27.7168L31.805 27.6308C32.0186 27.5054 32.1499 27.2762 32.1499 27.0285V15.4478Z" fill="url(#paint1_linear_103_1182)"/>
<path d="M32.1499 15.4478C32.1499 14.4544 31.6222 13.5358 30.7642 13.0352L16.8465 4.91641L10.7895 1.40788C9.44937 0.631613 7.7335 1.09394 6.96479 2.43841L0.375314 13.9634C0.129529 14.3933 0.00244691 14.8808 0.00709003 15.376L0.124894 27.939C0.127192 28.1841 0.257819 28.4101 0.469069 28.5343L14.9497 37.0532C15.168 37.1816 15.4387 37.1817 15.6572 37.0535L16.8465 36.3555V23.4176L22.2741 13.836C23.0389 12.4859 24.7576 12.0179 26.1013 12.794L30.2576 15.1945C30.4736 15.3193 30.6067 15.5498 30.6067 15.7992V27.1146C30.6067 27.6543 31.1929 27.99 31.6584 27.7168L31.805 27.6308C32.0186 27.5054 32.1499 27.2762 32.1499 27.0285V15.4478Z" fill="url(#paint2_linear_103_1182)" fill-opacity="0.7"/>
</g>
</g>
</g>
<defs>
<linearGradient id="paint0_linear_103_1182" x1="13.8094" y1="-35.7077" x2="21.4904" y2="22.5976" gradientUnits="userSpaceOnUse">
<stop stop-color="#995236"/>
<stop offset="1" stop-color="#FFE7E4"/>
</linearGradient>
<linearGradient id="paint1_linear_103_1182" x1="17.6498" y1="5.49007" x2="6.47755" y2="32.0242" gradientUnits="userSpaceOnUse">
<stop stop-color="#FF6060"/>
<stop offset="0.112606" stop-color="#F45C5C"/>
<stop offset="0.519027" stop-color="#E65757"/>
<stop offset="0.581214" stop-color="#E96262"/>
<stop offset="0.641094" stop-color="#EE6C6C"/>
<stop offset="1" stop-color="#ED5959"/>
</linearGradient>
<linearGradient id="paint2_linear_103_1182" x1="16.2533" y1="4.44267" x2="8.92149" y2="15.2658" gradientUnits="userSpaceOnUse">
<stop stop-color="#FF7F50"/>
<stop offset="1" stop-color="#E53A1C"/>
</linearGradient>
</defs>
</svg>
