<svg preserveAspectRatio="none" width="100%" height="100%" overflow="visible" style="display: block;" viewBox="0 0 24.2927 25.6369" fill="none" xmlns="http://www.w3.org/2000/svg">
<path id="a" d="M17.4741 24.8548L16.4721 18.4273V9.40915C16.4721 8.20347 16.2522 7.26663 15.8123 6.59862C15.3723 5.93062 14.4355 5.59661 13.0017 5.59661C12.1545 5.59661 11.4621 5.72695 10.9244 5.98764C10.403 6.23203 10.012 6.56604 9.7513 6.98965C9.5069 7.39698 9.38471 7.84503 9.38471 8.33382H0.928695C0.928695 6.44384 1.37675 4.88787 2.27286 3.6659C3.16897 2.42764 4.51313 1.50709 6.30535 0.904257C8.09757 0.301419 10.3297 0 13.0017 0C15.3316 0 17.3356 0.358444 19.0138 1.07533C20.7083 1.79222 22.0117 2.86755 22.9241 4.30133C23.8365 5.7351 24.2927 7.53547 24.2927 9.70242V24.8548H17.4741ZM9.89793 25.6369C7.74727 25.6369 5.93061 25.2784 4.44796 24.5615C2.9816 23.8284 1.87368 22.8426 1.12421 21.6044C0.374737 20.3661 0 18.9975 0 17.4986C0 16.0811 0.39103 14.8591 1.17309 13.8327C1.95515 12.7899 3.11194 11.9834 4.64348 11.4132C6.1913 10.8429 8.08942 10.5578 10.3378 10.5578C11.7064 10.5578 12.9121 10.6311 13.9549 10.7778C15.0139 10.9244 16.0974 11.1036 17.2053 11.3154V15.7145C16.3907 15.5353 15.5434 15.3968 14.6636 15.299C13.8001 15.2013 12.9529 15.1524 12.1219 15.1524C10.9651 15.1524 10.0446 15.3398 9.36027 15.7145C8.69226 16.0729 8.35826 16.6676 8.35826 17.4986C8.35826 18.1014 8.65967 18.6309 9.26251 19.0871C9.86535 19.527 10.8185 19.747 12.1219 19.747C13.2298 19.747 14.1015 19.527 14.7369 19.0871C15.3723 18.6472 15.8204 18.0933 16.0811 17.4253C16.3418 16.7572 16.4721 16.0974 16.4721 15.4457H18.3051C18.3051 17.3031 18.0118 19.0057 17.4253 20.5535C16.8387 22.1013 15.9263 23.3396 14.688 24.2683C13.4498 25.1807 11.8531 25.6369 9.89793 25.6369Z" fill="url(#paint0_linear_103_1178)"/>
<defs>
<linearGradient id="paint0_linear_103_1178" x1="19.9006" y1="1.46287" x2="2.79307" y2="23.4583" gradientUnits="userSpaceOnUse">
<stop stop-color="#FC7152"/>
<stop offset="1" stop-color="#E74530"/>
</linearGradient>
</defs>
</svg>
